<svg width="121" height="17" viewBox="0 0 121 17" fill="none" xmlns="http://www.w3.org/2000/svg">
<path d="M0.690425 16.3209C0.554782 16.3209 0.441746 16.2832 0.351317 16.2079C0.27596 16.1175 0.238281 16.0044 0.238281 15.8688V0.948039C0.238281 0.812396 0.27596 0.706896 0.351317 0.631539C0.441746 0.541109 0.554782 0.495895 0.690425 0.495895H15.566C17.5403 0.495895 19.0776 0.865146 20.1778 1.60365C21.278 2.32708 21.8281 3.32179 21.8281 4.58779C21.8281 5.19065 21.6774 5.75583 21.376 6.28333C21.0746 6.81083 20.6827 7.23284 20.2004 7.54934C20.11 7.60962 20.0648 7.67744 20.0648 7.7528C20.0648 7.81309 20.1175 7.87337 20.223 7.93366C21.5795 8.73245 22.2577 9.93062 22.2577 11.5282C22.2577 13.0353 21.6624 14.2109 20.4717 15.0549C19.2961 15.8989 17.4876 16.3209 15.046 16.3209H0.690425ZM14.2773 6.10248C14.5034 6.10248 14.6767 6.04973 14.7973 5.94423C14.9179 5.82365 14.9782 5.65787 14.9782 5.44687V5.40165C14.9782 5.19065 14.9179 5.0324 14.7973 4.9269C14.6767 4.80633 14.5034 4.74605 14.2773 4.74605H7.56301C7.41229 4.74605 7.33694 4.8214 7.33694 4.97212V5.8764C7.33694 6.02712 7.41229 6.10248 7.56301 6.10248H14.2773ZM14.5486 11.483C14.7898 11.483 14.9782 11.4302 15.1138 11.3247C15.2495 11.2042 15.3173 11.0308 15.3173 10.8048V10.6691C15.3173 10.4431 15.2495 10.2773 15.1138 10.1718C14.9782 10.0512 14.7898 9.99091 14.5486 9.99091H7.56301C7.41229 9.99091 7.33694 10.0663 7.33694 10.217V11.2569C7.33694 11.4076 7.41229 11.483 7.56301 11.483H14.5486Z" fill="#071108"/>
<path d="M22.5279 16.3209C22.3621 16.3209 22.234 16.2908 22.1436 16.2305C22.0682 16.1551 22.0305 16.0647 22.0305 15.9592C22.0305 15.8537 22.0607 15.7482 22.121 15.6427L30.35 1.10629C30.4706 0.895289 30.5987 0.744574 30.7343 0.654146C30.87 0.548645 31.0433 0.495895 31.2543 0.495895H39.3476C39.5586 0.495895 39.732 0.548645 39.8676 0.654146C40.0033 0.744574 40.1314 0.895289 40.2519 1.10629L48.4809 15.6427C48.5412 15.7482 48.5714 15.8537 48.5714 15.9592C48.5714 16.0647 48.5262 16.1551 48.4357 16.2305C48.3604 16.2908 48.2398 16.3209 48.074 16.3209H41.3145C41.1487 16.3209 41.0206 16.2832 40.9302 16.2079C40.8397 16.1325 40.7342 15.9969 40.6136 15.801L39.8676 14.535C39.732 14.2787 39.5285 14.1506 39.2572 14.1506H31.3447C31.0734 14.1506 30.87 14.2787 30.7343 14.535L29.9883 15.801C29.8677 15.9969 29.7622 16.1325 29.6718 16.2079C29.5813 16.2832 29.4532 16.3209 29.2875 16.3209H22.5279ZM36.8382 9.47095C36.9287 9.47095 36.9965 9.4408 37.0417 9.38052C37.0869 9.30516 37.0869 9.2298 37.0417 9.15445L35.5044 6.1703C35.4592 6.07987 35.3914 6.03466 35.301 6.03466C35.2105 6.03466 35.1427 6.07987 35.0975 6.1703L33.5602 9.15445C33.5451 9.18459 33.5376 9.22227 33.5376 9.26748C33.5376 9.32777 33.5602 9.38052 33.6054 9.42573C33.6506 9.45588 33.7034 9.47095 33.7637 9.47095H36.8382Z" fill="#071108"/>
<path d="M52.8085 16.3209C52.6728 16.3209 52.5598 16.2832 52.4693 16.2079C52.394 16.1175 52.3563 16.0044 52.3563 15.8688V6.10248C52.3563 5.95176 52.281 5.8764 52.1302 5.8764H44.8281C44.6925 5.8764 44.5794 5.83873 44.489 5.76337C44.4137 5.67294 44.376 5.5599 44.376 5.42426V0.948039C44.376 0.812396 44.4137 0.706896 44.489 0.631539C44.5794 0.541109 44.6925 0.495895 44.8281 0.495895H66.9832C67.1188 0.495895 67.2243 0.541109 67.2997 0.631539C67.3901 0.706896 67.4353 0.812396 67.4353 0.948039V5.42426C67.4353 5.5599 67.3901 5.67294 67.2997 5.76337C67.2243 5.83873 67.1188 5.8764 66.9832 5.8764H59.681C59.5303 5.8764 59.455 5.95176 59.455 6.10248V15.8688C59.455 16.0044 59.4098 16.1175 59.3193 16.2079C59.244 16.2832 59.1385 16.3209 59.0028 16.3209H52.8085Z" fill="#071108"/>
<path d="M77.1982 16.5922C75.4801 16.5922 73.9654 16.2682 72.6542 15.6201C71.343 14.972 70.3257 14.0451 69.6022 12.8394C68.8788 11.6186 68.5171 10.1944 68.5171 8.56666V8.25016C68.5171 6.62244 68.8788 5.20573 69.6022 4.00001C70.3257 2.77922 71.343 1.84479 72.6542 1.19672C73.9654 0.548646 75.4801 0.224609 77.1982 0.224609H85.9246C87.6428 0.224609 89.1575 0.548646 90.4687 1.19672C91.7799 1.84479 92.7972 2.77922 93.5206 4.00001C94.2441 5.20573 94.6058 6.62244 94.6058 8.25016V8.56666C94.6058 10.1944 94.2441 11.6186 93.5206 12.8394C92.7972 14.0451 91.7799 14.972 90.4687 15.6201C89.1575 16.2682 87.6428 16.5922 85.9246 16.5922H77.1982ZM84.5004 11.2569C85.3896 11.2569 86.0979 11.0308 86.6255 10.5787C87.153 10.1266 87.4167 9.47848 87.4167 8.63448V8.18234C87.4167 7.33834 87.153 6.69026 86.6255 6.23812C86.0979 5.78598 85.3896 5.5599 84.5004 5.5599H78.6225C77.7333 5.5599 77.0249 5.78598 76.4974 6.23812C75.9699 6.69026 75.7062 7.33834 75.7062 8.18234V8.63448C75.7062 9.47848 75.9699 10.1266 76.4974 10.5787C77.0249 11.0308 77.7333 11.2569 78.6225 11.2569H84.5004Z" fill="#071108"/>
<path d="M97.1463 16.3209C97.0106 16.3209 96.8976 16.2832 96.8072 16.2079C96.7318 16.1175 96.6941 16.0044 96.6941 15.8688V0.948039C96.6941 0.797324 96.7318 0.684288 96.8072 0.608931C96.8976 0.533573 97.0106 0.495895 97.1463 0.495895H103.476C103.642 0.495895 103.77 0.518502 103.861 0.563717C103.951 0.608931 104.072 0.691824 104.222 0.812395L113.288 8.54405C113.333 8.58927 113.386 8.61187 113.446 8.61187C113.552 8.61187 113.604 8.55159 113.604 8.43102V0.948039C113.604 0.64661 113.755 0.495895 114.056 0.495895H120.07C120.371 0.495895 120.522 0.64661 120.522 0.948039V15.8688C120.522 16.0044 120.484 16.1175 120.409 16.2079C120.334 16.2832 120.221 16.3209 120.07 16.3209H113.152C112.986 16.3209 112.858 16.2983 112.768 16.2531C112.677 16.2079 112.557 16.125 112.406 16.0044L103.928 8.49884C103.883 8.45362 103.83 8.43102 103.77 8.43102C103.665 8.43102 103.612 8.4913 103.612 8.61187V15.8688C103.612 16.0044 103.574 16.1175 103.499 16.2079C103.424 16.2832 103.31 16.3209 103.16 16.3209H97.1463Z" fill="#071108"/>
</svg>
